<?xml version="1.0" encoding="UTF-8" standalone="no"?>
<!-- Created with Inkscape (http://www.inkscape.org/) -->

<svg
   xmlns:dc="http://purl.org/dc/elements/1.1/"
   xmlns:cc="http://creativecommons.org/ns#"
   xmlns:rdf="http://www.w3.org/1999/02/22-rdf-syntax-ns#"
   xmlns:svg="http://www.w3.org/2000/svg"
   xmlns="http://www.w3.org/2000/svg"
   xmlns:xlink="http://www.w3.org/1999/xlink"
   xmlns:sodipodi="http://sodipodi.sourceforge.net/DTD/sodipodi-0.dtd"
   xmlns:inkscape="http://www.inkscape.org/namespaces/inkscape"
   version="1.1"
   viewBox="0 0 200 200"
   id="svg4251"
   inkscape:version="0.48.4 r9939"
   sodipodi:docname="AvatarChipmunck.svg">
  <sodipodi:namedview
     pagecolor="#ffffff"
     bordercolor="#666666"
     borderopacity="1"
     objecttolerance="10"
     gridtolerance="10"
     guidetolerance="10"
     inkscape:pageopacity="0"
     inkscape:pageshadow="2"
     inkscape:window-width="1408"
     inkscape:window-height="926"
     id="namedview4855"
     showgrid="false"
     fit-margin-top="0"
     fit-margin-left="0"
     fit-margin-right="0"
     fit-margin-bottom="0"
     inkscape:zoom="2.599958"
     inkscape:cx="84.212808"
     inkscape:cy="111.95534"
     inkscape:window-x="49"
     inkscape:window-y="24"
     inkscape:window-maximized="0"
     inkscape:current-layer="layer1" />
  <defs
     id="defs4253">
    <linearGradient
       x1="136.82172"
       y1="485.79807"
       x2="138.90529"
       y2="499.68765"
       id="linearGradient4019"
       xlink:href="#linearGradient3922"
       gradientUnits="userSpaceOnUse"
       gradientTransform="translate(249.35117,-79.225477)" />
    <linearGradient
       id="linearGradient3922">
      <stop
         id="stop3924"
         style="stop-color:#ffe296;stop-opacity:1"
         offset="0" />
      <stop
         id="stop3926"
         style="stop-color:#ff9955;stop-opacity:1"
         offset="1" />
    </linearGradient>
    <linearGradient
       x1="142.83928"
       y1="518.04742"
       x2="144.67857"
       y2="531.6189"
       id="linearGradient4005"
       xlink:href="#linearGradient3930"
       gradientUnits="userSpaceOnUse"
       gradientTransform="translate(249.35117,-79.225477)" />
    <linearGradient
       id="linearGradient3930">
      <stop
         id="stop3932"
         style="stop-color:#ff9955;stop-opacity:1"
         offset="0" />
      <stop
         id="stop3934"
         style="stop-color:#c05a00;stop-opacity:1"
         offset="1" />
    </linearGradient>
    <linearGradient
       x1="75.140709"
       y1="518.13873"
       x2="80.68576"
       y2="514.91882"
       id="linearGradient3991"
       xlink:href="#linearGradient3930"
       gradientUnits="userSpaceOnUse"
       gradientTransform="translate(249.35117,-79.225477)" />
    <linearGradient
       id="linearGradient4169">
      <stop
         id="stop4171"
         style="stop-color:#ff9955;stop-opacity:1"
         offset="0" />
      <stop
         id="stop4173"
         style="stop-color:#c05a00;stop-opacity:1"
         offset="1" />
    </linearGradient>
    <radialGradient
       cx="120.86153"
       cy="598.7121"
       r="26.904249"
       fx="120.86153"
       fy="598.7121"
       id="radialGradient3910"
       xlink:href="#linearGradient3904"
       gradientUnits="userSpaceOnUse"
       gradientTransform="matrix(0.99088829,-7.2599186e-5,9.7420379e-5,1.3297198,250.93543,-276.62485)" />
    <linearGradient
       id="linearGradient3904">
      <stop
         id="stop3906"
         style="stop-color:#000000;stop-opacity:1"
         offset="0" />
      <stop
         id="stop3912"
         style="stop-color:#410000;stop-opacity:1"
         offset="0.61034828" />
      <stop
         id="stop3908"
         style="stop-color:#800000;stop-opacity:1"
         offset="1" />
    </linearGradient>
    <linearGradient
       x1="143.0775"
       y1="537.41492"
       x2="147.22733"
       y2="543.88031"
       id="linearGradient4047"
       xlink:href="#linearGradient4041"
       gradientUnits="userSpaceOnUse" />
    <linearGradient
       id="linearGradient4041">
      <stop
         id="stop4043"
         style="stop-color:#ffffff;stop-opacity:1"
         offset="0" />
      <stop
         id="stop4045"
         style="stop-color:#ffffff;stop-opacity:0"
         offset="1" />
    </linearGradient>
    <linearGradient
       x1="127.37775"
       y1="535.07092"
       x2="120.98114"
       y2="510.66547"
       id="linearGradient3944"
       xlink:href="#linearGradient3938"
       gradientUnits="userSpaceOnUse" />
    <linearGradient
       id="linearGradient3938">
      <stop
         id="stop3940"
         style="stop-color:#00aa44;stop-opacity:1"
         offset="0" />
      <stop
         id="stop3942"
         style="stop-color:#000000;stop-opacity:1"
         offset="1" />
    </linearGradient>
    <linearGradient
       x1="126.83529"
       y1="533.24207"
       x2="124.62843"
       y2="510.98886"
       id="linearGradient3946"
       xlink:href="#linearGradient3938"
       gradientUnits="userSpaceOnUse" />
    <linearGradient
       id="linearGradient4189">
      <stop
         id="stop4191"
         style="stop-color:#00aa44;stop-opacity:1"
         offset="0" />
      <stop
         id="stop4193"
         style="stop-color:#000000;stop-opacity:1"
         offset="1" />
    </linearGradient>
    <linearGradient
       x1="151.74637"
       y1="509.71439"
       x2="162.12119"
       y2="514.35724"
       id="linearGradient3970"
       xlink:href="#linearGradient3956"
       gradientUnits="userSpaceOnUse"
       gradientTransform="translate(249.35117,-79.225477)" />
    <linearGradient
       id="linearGradient3956">
      <stop
         id="stop3958"
         style="stop-color:#b7fffe;stop-opacity:1"
         offset="0" />
      <stop
         id="stop3960"
         style="stop-color:#ffffff;stop-opacity:1"
         offset="1" />
    </linearGradient>
    <linearGradient
       x1="111.8158"
       y1="510.60669"
       x2="122.77834"
       y2="514.8031"
       id="linearGradient3962"
       xlink:href="#linearGradient3956"
       gradientUnits="userSpaceOnUse"
       gradientTransform="translate(249.35117,-79.225477)" />
    <linearGradient
       id="linearGradient4200">
      <stop
         id="stop4202"
         style="stop-color:#b7fffe;stop-opacity:1"
         offset="0" />
      <stop
         id="stop4204"
         style="stop-color:#ffffff;stop-opacity:1"
         offset="1" />
    </linearGradient>
    <linearGradient
       x1="150.49181"
       y1="539.23029"
       x2="151.69"
       y2="547.56403"
       id="linearGradient3920"
       xlink:href="#linearGradient3914"
       gradientUnits="userSpaceOnUse"
       gradientTransform="translate(249.35117,-79.225477)" />
    <linearGradient
       id="linearGradient3914">
      <stop
         id="stop3916"
         style="stop-color:#ffaaaa;stop-opacity:1"
         offset="0" />
      <stop
         id="stop3918"
         style="stop-color:#ff6767;stop-opacity:1"
         offset="1" />
    </linearGradient>
    <linearGradient
       x1="144.67229"
       y1="533.56415"
       x2="148.86514"
       y2="553.26215"
       id="linearGradient3928"
       xlink:href="#linearGradient3922"
       gradientUnits="userSpaceOnUse"
       gradientTransform="translate(249.35117,-79.225477)" />
    <linearGradient
       id="linearGradient4211">
      <stop
         id="stop4213"
         style="stop-color:#ffe296;stop-opacity:1"
         offset="0" />
      <stop
         id="stop4215"
         style="stop-color:#ff9955;stop-opacity:1"
         offset="1" />
    </linearGradient>
    <linearGradient
       x1="134.73622"
       y1="573.11493"
       x2="132.95319"
       y2="630.4411"
       id="linearGradient3936"
       xlink:href="#linearGradient3930"
       gradientUnits="userSpaceOnUse"
       gradientTransform="translate(249.35117,-79.225477)" />
    <linearGradient
       id="linearGradient4218">
      <stop
         id="stop4220"
         style="stop-color:#ff9955;stop-opacity:1"
         offset="0" />
      <stop
         id="stop4222"
         style="stop-color:#c05a00;stop-opacity:1"
         offset="1" />
    </linearGradient>
    <filter
       color-interpolation-filters="sRGB"
       id="filter4033">
      <feGaussianBlur
         id="feGaussianBlur4035"
         stdDeviation="2.4586399" />
    </filter>
  </defs>
  <metadata
     id="metadata4256">
    <rdf:RDF>
      <cc:Work
         rdf:about="">
        <dc:format>image/svg+xml</dc:format>
        <dc:type
           rdf:resource="http://purl.org/dc/dcmitype/StillImage" />
        <dc:title />
      </cc:Work>
    </rdf:RDF>
  </metadata>
  <g
     transform="translate(-285.19694,-386.30577)"
     id="layer1">
    <rect
       width="143.92857"
       height="143.92857"
       ry="0"
       x="309.35117"
       y="408.49387"
       id="rect4021"
       style="fill:#8fffc7;fill-opacity:1;stroke:#ffffff;stroke-width:5;stroke-linejoin:round;stroke-miterlimit:4;stroke-opacity:1;stroke-dasharray:none" />
    <path
       d="m 383.41018,397.43679 c -6.25376,3.90175 -7.67047,12.20703 -8.34375,18.40625 -2.8646,0.62017 -3.64915,4.78673 -6.65625,2.4375 -4.70134,-1.57595 -10.09907,-0.96163 -13.90625,2.34375 -7.4538,-1.55604 -18.14569,5.74261 -23.76063,10.50911 -8.2894,-0.39524 -17.84926,1.74902 -23.09205,3.02214 -2.84613,-2.80724 -6.38488,-2.69815 -11.67857,-3.08482 2.07869,1.6638 3.12925,2.76893 4.10268,4.11161 -6.84504,1.75502 -7.72381,7.47059 -8.97768,11.34821 1.54549,-1.04684 2.92133,-2.56263 5.84375,-2.94197 -0.255,2.01096 -0.62569,4.02835 -0.74107,7.87947 2.8613,-2.7303 7.24424,-6.68139 9.45536,-7.30804 6.45904,3.74373 11.72539,10.38462 13.12946,16.40179 0.63572,3.21617 1.86678,3.5016 3.08131,4.7131 -1.2716,10.91606 -1.36549,26.11293 -8.23756,35.13065 -3.27912,6.12071 -4.05347,13.20568 -4.65625,20.0625 2.01159,-2.2675 3.27206,-4.12733 4.56697,-5.23661 -2.869,8.46758 -2.20028,18.08557 -0.87947,25.95536 1.39903,-2.01049 3.11595,-9.24101 4.375,-8.65625 1.55323,6.29732 6.92571,10.40713 12.15625,13.6875 0.0124,-2.38426 -1.82161,-7.06929 -0.65625,-8.625 12.46124,5.82736 18.62822,21.07164 32.875,23.84375 8.68453,1.91866 18.23539,2.1693 26.81251,-0.1875 10.05472,-6.11376 11.02932,-19.59313 16.78125,-28.78125 3.68767,-8.40304 12.21128,-12.9813 17.375,-20.09375 1.22634,-2.25019 2.00046,-4.73547 2.5,-7.25 0.79103,0.9063 0.83176,2.63806 1.25893,3.10714 3.73713,-3.01266 5.80416,-10.61252 5.86607,-13.79464 1.79341,0.79484 2.87616,1.4146 4.34821,2.49107 1.83669,-4.25981 0.58589,-10.3289 -0.0357,-12.86607 1.20188,0.82767 2.6295,2.99348 4.03125,5 1.68973,-4.97489 1.10704,-11.02637 -0.15625,-14.78125 2.35958,1.39502 4.22153,2.42417 5.78415,3.27359 0.22333,-2.45415 -1.5491,-5.3559 -4.40469,-9.05484 -4.74245,-6.14305 -7.24217,-8.83571 -14.62946,-11.25 -0.97412,-4.95363 -3.77836,-9.75579 -4.16278,-14.58652 1.96059,-7.19213 5.64317,-15.99199 12.88153,-19.19473 1.77372,-0.0119 3.73631,0.0871 5.76459,0.53617 -0.50737,-1.81633 -0.56935,-2.80371 -2.1967,-4.28125 4.71746,-3.12031 8.11047,-4.29204 11.36612,-6.86342 -4.39585,-2.9104 -11.7376,-1.37815 -14.49651,-0.1415 -0.84451,-1.15607 -1.92956,-2.35748 -3.26366,-2.37222 -0.19769,1.05855 -0.51816,2.73556 -1.09621,4.11648 -4.84501,2.42746 -12.09961,6.17101 -16.45263,9.03699 -3.95466,-2.53043 -9.15649,-1.42068 -12.09375,-5.375 -3.43744,-3.14187 -8.80788,-3.74321 -12.71875,-1.15625 -6.05571,0.7619 -1.50904,-3.33559 0.59699,-5.41066 5.65869,-4.12996 6.98083,-6.22922 -1.03449,-4.15184 -2.16023,-0.39709 -6.29406,3.65127 -5.12501,-0.625 0.3482,-4.17627 1.89358,-8.11708 2.90626,-12.15625 -1.46875,0.9375 -2.93751,1.875 -4.40626,2.8125 z"
       id="path4023"
       style="fill:#005c05;fill-opacity:0.34117647;stroke:none;filter:url(#filter4033)"
       inkscape:connector-curvature="0" />
    <path
       d="m 389.97618,390.61827 c -6.25377,3.90175 -7.67048,12.20703 -8.34376,18.40625 -2.8646,0.62017 -3.64915,4.78673 -6.65625,2.4375 -4.70134,-1.57595 -10.09907,-0.96163 -13.90625,2.34375 -7.4538,-1.55604 -18.14568,5.74261 -23.76063,10.50911 -8.2894,-0.39524 -17.84926,1.74902 -23.09204,3.02214 -2.84614,-2.80724 -6.38488,-2.69815 -11.67858,-3.08482 2.0787,1.6638 3.12925,2.76893 4.10268,4.11161 -6.84503,1.75502 -7.72381,7.47059 -8.97768,11.34821 1.54549,-1.04684 2.92133,-2.56263 5.84375,-2.94197 -0.25499,2.01096 -0.62569,4.02835 -0.74107,7.87947 2.8613,-2.7303 7.24424,-6.68139 9.45536,-7.30804 6.45904,3.74373 11.72539,10.38462 13.12946,16.40179 0.63572,3.21617 1.86678,3.5016 3.08131,4.7131 -1.2716,10.91606 -1.36549,26.11293 -8.23756,35.13065 -3.27911,6.12071 -4.05347,13.20568 -4.65625,20.0625 2.01159,-2.2675 3.27206,-4.12733 4.56697,-5.23661 -2.869,8.46758 -2.20027,18.08557 -0.87947,25.95536 1.39904,-2.01049 3.11596,-9.24101 4.375,-8.65625 1.55323,6.29732 6.92571,10.40713 12.15625,13.6875 0.0124,-2.38426 -1.8216,-7.06929 -0.65625,-8.625 12.46124,5.82736 18.62822,21.07164 32.875,23.84375 8.68453,1.91866 18.2354,2.1693 26.81251,-0.1875 10.05472,-6.11376 11.02932,-19.59313 16.78125,-28.78125 3.68767,-8.40304 12.21128,-12.9813 17.375,-20.09375 1.22634,-2.25019 2.00046,-4.73547 2.5,-7.25 0.79103,0.9063 0.83176,2.63806 1.25893,3.10714 3.73713,-3.01266 5.80416,-10.61252 5.86607,-13.79464 1.79341,0.79484 2.87616,1.4146 4.34821,2.49107 1.83669,-4.25981 0.58589,-10.3289 -0.0357,-12.86607 1.20188,0.82767 2.6295,2.99348 4.03125,5 1.68973,-4.97489 1.10704,-11.02637 -0.15625,-14.78125 2.35958,1.39502 4.22153,2.42417 5.78415,3.27359 0.22333,-2.45415 -1.5491,-5.3559 -4.40469,-9.05484 -4.74245,-6.14305 -7.24217,-8.83571 -14.62946,-11.25 -0.97412,-4.95363 -3.77836,-9.75579 -4.16278,-14.58652 1.96059,-7.19213 5.64317,-15.99199 12.88153,-19.19473 1.77372,-0.0119 3.73631,0.0871 5.76459,0.53617 -0.50737,-1.81633 -0.56935,-2.80371 -2.1967,-4.28125 4.71746,-3.12031 8.11047,-4.29204 11.36612,-6.86342 -4.39585,-2.9104 -11.7376,-1.37815 -14.49651,-0.1415 -0.84451,-1.15607 -1.92956,-2.35748 -3.26366,-2.37222 -0.19769,1.05855 -0.51816,2.73556 -1.09621,4.11648 -4.84501,2.42746 -12.09961,6.17101 -16.45263,9.03699 -3.95466,-2.53043 -9.15649,-1.42068 -12.09375,-5.375 -3.43744,-3.14187 -8.80788,-3.74321 -12.71875,-1.15625 -6.0557,0.7619 -1.50904,-3.33559 0.59699,-5.41066 5.65869,-4.12996 6.98083,-6.22922 -1.03449,-4.15184 -2.16023,-0.39709 -6.29405,3.65127 -5.125,-0.625 0.34819,-4.17627 1.89357,-8.11708 2.90625,-12.15625 -1.46875,0.9375 -2.9375,1.875 -4.40625,2.8125 z"
       id="path3036"
       style="fill:#000000;stroke:#000000;stroke-width:3;stroke-linecap:butt;stroke-linejoin:round;stroke-miterlimit:4;stroke-opacity:1;stroke-dasharray:none"
       inkscape:connector-curvature="0" />
    <path
       d="m 391.03868,392.30577 c 0,0 -8.10645,4.92925 -6.84376,18.1875 0,0 -3.39356,0.22589 -4.65625,2.625 l 3.28125,4.3125 c 0,0 -7.05394,-5.6039 -14.125,-4.59375 -7.07107,1.01015 -18.0625,15.53125 -18.0625,15.53125 0,0 1.48636,-7.41164 9.0625,-13.09375 -14.25428,3.43435 -13.51418,5.89169 -24.34375,14.40625 l 1,-2.65625 c 0,0 -3.04552,-0.75635 -7.84375,-0.125 -4.79822,0.63134 -15.65625,3.40625 -15.65625,3.40625 0,0 0.017,-2.26983 -4.78125,-3.40625 1.51523,1.01015 2.15625,3.40625 2.15625,3.40625 0,0 -5.30948,-0.99588 -8.71875,4.8125 2.27285,-1.89404 5.6875,-1.15625 5.6875,-1.15625 0,0 -1.52744,1.14943 -1.90625,4.9375 2.77792,-3.283 6.5625,-4.4375 6.5625,-4.4375 0,0 8.47462,5.68956 11,8.59375 2.52539,2.90419 3.76222,10.10215 5.65625,12.375 1.89404,2.27284 4.4375,1.25 4.4375,1.25 l -2.15625,1.03125 c 0,0 -1.51094,18.67385 -3.53125,26.25 -2.0203,7.57614 -7.20098,9.61675 -8.96875,22.875 0,0 4.93322,-6.83614 8.46875,-7.59375 -8.46002,12.12183 -6.4375,27.65625 -6.4375,27.65625 0,0 2.63087,-6.93242 5.15625,-7.4375 -2.27284,9.47018 7.59375,15.65625 7.59375,15.65625 0,0 -0.88642,-4.94844 0.25,-6.96875 5.68211,1.26269 9.85581,4.82074 21.09375,16.4375 11.23795,11.61675 27.28109,9.60137 36.62501,8.84375 9.34391,-0.75761 12.47795,-16.67845 17.78125,-26.90625 5.3033,-10.22779 9.71907,-13.25666 15.90625,-18.8125 6.18719,-5.55584 5.4375,-18.8125 5.4375,-18.8125 2.27284,1.76777 3.15625,8.1875 3.15625,8.1875 0,0 4.29394,-5.17386 3.03125,-12.75 l 5.0625,2.40625 c 0,0 1.38436,-6.80139 -2.65625,-14.125 3.40926,0.25254 6.6875,4.53125 6.6875,4.53125 0,0 1.39071,-7.69543 -3.28125,-13.125 2.77792,0 6.8125,2.40625 6.8125,2.40625 0,0 -8.3355,-14.90498 -21.59375,-15.03125 0.63135,-0.88388 2.16973,-1.40752 3.9375,-1.28125 0,0 -2.78664,-11.102 -8.46875,-22.71875 2.65165,1.89404 4.90625,6.6875 4.90625,6.6875 0,0 2.77601,-12.62151 12.625,-19.1875 1.01015,-0.50508 4.4375,-0.125 4.4375,-0.125 0,0 -0.37833,-1.75254 -3.15625,-1.5 2.52538,-1.89404 5.79553,-4.32091 10.59375,-6.59375 -4.29315,-1.6415 -10.21875,2.65625 -10.21875,2.65625 0,0 -0.11231,-2.02744 -1.375,-2.40625 0.12627,2.14657 -1.28125,4.4375 -1.28125,4.4375 l -1,-2.15625 c 0,0 -13.3796,6.81075 -16.03125,10.09375 0,0 -3.5506,-2.49619 -7.84375,-2.875 0.50508,1.13642 0,3.15625 0,3.15625 0,0 -5.81409,-9.22002 -11.875,-9.09375 -6.06092,0.12627 -9.84375,6.9375 -9.84375,6.9375 0,0 0.25714,-3.16466 2.65625,-5.4375 l -5.1875,-0.625 c 2.14657,-4.92449 6.84375,-8.84375 6.84375,-8.84375 0,0 -4.82218,0.50206 -6.96875,3.40625 -0.63135,-2.39911 -1.61913,-4.91243 0.90625,-13.625 z m -21.12501,27.40625 c 14.84314,-0.18996 21.41219,18.88591 16.46876,30.84375 -0.22314,1.13793 -0.61931,2.07807 -1.15625,2.875 5.05234,-1.21788 10.52035,-1.77618 16.5,-1.59375 0.71313,-0.0147 1.41191,-0.0492 2.125,-0.0625 -3.39843,-3.18233 -4.87411,-8.81046 -6.09375,-13.15625 -1.42734,-6.41063 -1.57294,-17.15983 6.5625,-18.84375 1.24079,-0.10024 2.49564,0.12852 3.625,0.65625 9.52994,5.56149 13.02802,18.48796 11.15625,28.875 -0.079,1.4409 -0.5129,2.43461 -1.15625,3.15625 4.03369,0.67274 7.63181,2.31007 11.3125,6.6875 3.17223,7.09317 -1.42938,11.07887 -8.3125,14.3125 -23.04165,6.07565 -32.29327,9.42433 -55.96876,12.75 -7.03109,1.80846 -14.55441,-0.45583 -15.625,-6.53125 5.96225,-8.03586 12.33641,-14.57277 19.625,-19.28125 -5.2635,-1.03646 -9.71125,-6.83327 -11.625,-11.59375 -4.7116,-10.63672 -0.6888,-27.67311 12.5625,-29.09375 z m -44.0625,12.78125 c 4.15307,0.0518 8.59962,0.79029 11.125,3 4.04061,3.53554 4.9375,8.3125 4.9375,8.3125 0,0 -3.54171,-5.15117 -8.71875,-5.65625 1.89404,2.90419 2.28125,8.0625 2.28125,8.0625 0,0 -5.55107,-4.93496 -6.6875,-5.1875 -0.3788,6.06092 3.78125,7.84375 3.78125,7.84375 0,0 -5.5498,-2.03489 -6.8125,-11 2.39912,0.25254 6.1875,2.90625 6.1875,2.90625 0,0 0.12294,-2.25206 -2.78125,-5.15625 2.14658,-0.12627 4.15625,0.625 4.15625,0.625 0,0 -0.14038,-2.52364 -14.15625,-3.28125 1.79934,-0.2841 4.19566,-0.49982 6.6875,-0.46875 z m 81.00001,52.96875 -1.0625,4.4375 c 0.005,0.003 -0.005,0.0287 0,0.0312 3.89239,2.16517 8.80916,2.17733 13.0625,0.875 0.44001,8.88808 -2.24808,17.80748 -7.34375,25.03125 -7.62189,7.28351 -11.142,17.32448 -15.4375,26.6875 -2.14773,6.63929 -9.34449,8.30198 -15.40626,8.9375 -8.00627,1.55351 -16.87195,-3.15051 -18,-11.5625 -3.31766,-10.79296 -2.30429,-25.24252 8.53125,-31.375 11.43936,-4.6752 23.29254,-9.393 32.15626,-18.5 l 0.0937,-0.0937 3.40625,-4.46875 z"
       id="path3034"
       style="fill:url(#linearGradient3936);fill-opacity:1;stroke:none"
       inkscape:connector-curvature="0" />
    <path
       d="m 411.38243,453.96202 c 3.85758,4.03961 1.75308,12.95042 -2.3125,17.09375 -2.51081,4.56693 -8.04258,5.41177 -12.53125,3.53125 -6.44561,-1.87317 -16.49643,-5.29619 -15.53126,-13.71875 0.39436,-1.885 1.24105,-3.36916 2.375,-4.53125 -23.22537,7.03205 -37.59375,27.34375 -37.59375,27.34375 0,0 1.58483,6.96429 6.40625,8.75 4.82143,1.78571 64.29466,-11.4375 72.68751,-13.9375 8.39286,-2.5 10.17857,-14.28125 8.75,-16.78125 -1.15278,-2.01737 -4.76602,-6.81325 -22.25,-7.75 z"
       id="path3040"
       style="fill:url(#linearGradient3928);fill-opacity:1;stroke:none"
       inkscape:connector-curvature="0" />
    <path
       d="m 402.92261,473.49384 c -3.46969,0.48779 -18.57144,-3.74999 -19.82144,-9.82142 -1.82551,-8.86674 10.89287,-9.46429 14.28572,-9.64286 3.39286,-0.17857 12.97387,-1.20121 13.92858,3.21429 1.42857,6.60714 -4.91627,15.76123 -8.39286,16.24999 z"
       id="path3042"
       style="fill:url(#linearGradient3920);fill-opacity:1;stroke:none"
       inkscape:connector-curvature="0" />
    <path
       d="m 370.72617,421.68077 c -7.8508,0 -13.76437,8.37114 -13.1875,18.6875 0.54082,9.67159 6.59094,17.63718 13.8125,18.59375 3.32359,-1.91581 6.84675,-3.46205 10.59375,-4.625 2.74764,-3.42212 4.34249,-8.40291 4.03126,-13.96875 -0.57687,-10.31636 -7.39921,-18.6875 -15.25001,-18.6875 z"
       id="path3044"
       style="fill:#ffffff;stroke:none"
       inkscape:connector-curvature="0" />
    <path
       d="m 404.91368,421.74327 c -4.78921,0 -7.12706,7.35 -5.21875,16.40625 1.20567,5.72172 3.81401,10.75375 6.78125,13.6875 3.43903,0.1486 6.50353,0.0905 9.3125,0.34375 1.91252,-2.86983 2.50659,-8.06785 1.25,-14.03125 -1.90831,-9.05625 -7.33579,-16.40625 -12.125,-16.40625 z"
       id="path3814"
       style="fill:#ffffff;stroke:none"
       inkscape:connector-curvature="0" />
    <path
       d="m 370.19492,423.71202 c -10.40971,1.44253 -12.72879,15.24796 -9.15625,23.46875 1.73176,4.30168 5.67033,9.79264 10.625,9.34375 4.18702,-2.85923 10.94915,-2.67212 11.53125,-9 2.82722,-9.00534 -1.8082,-23.74394 -13,-23.8125 z"
       id="path3948"
       style="fill:url(#linearGradient3962);fill-opacity:1;stroke:none"
       inkscape:connector-curvature="0" />
    <path
       d="m 140,520.48718 a 15.357145,18.660719 0 1 1 -30.71429,0 15.357145,18.660719 0 1 1 30.71429,0 z"
       transform="matrix(0.34149501,0,0.0206505,0.42693083,323.8058,219.94255)"
       id="path3816"
       style="fill:#000000;stroke:none"
       inkscape:connector-curvature="0" />
    <path
       d="m 404.63243,423.77452 c -4.89835,2.3007 -3.63615,9.58164 -2.96875,14 1.27157,4.21411 2.52658,10.31535 6.68679,12.13146 3.3318,0.0763 7.93102,1.29028 7.25071,-3.69396 0.29473,-8.04055 -2.09222,-18.17358 -9.75,-22.3125 -0.44527,-0.11825 -0.74438,-0.20188 -1.21875,-0.125 z"
       id="path3952"
       style="fill:url(#linearGradient3970);fill-opacity:1;stroke:none"
       inkscape:connector-curvature="0" />
    <path
       d="m 140,520.48718 a 15.357145,18.660719 0 1 1 -30.71429,0 15.357145,18.660719 0 1 1 30.71429,0 z"
       transform="matrix(0.27914346,0,0.05432858,0.40896977,341.2806,226.25533)"
       id="path3818"
       style="fill:#000000;stroke:none"
       inkscape:connector-curvature="0" />
    <path
       d="m 140,520.48718 a 15.357145,18.660719 0 1 1 -30.71429,0 15.357145,18.660719 0 1 1 30.71429,0 z"
       transform="matrix(0.26316584,0,0.01591387,0.32900513,336.03433,270.91162)"
       id="path3820"
       style="fill:url(#linearGradient3946);fill-opacity:1;stroke:none"
       inkscape:connector-curvature="0" />
    <path
       d="m 140,520.48718 a 15.357145,18.660719 0 1 1 -30.71429,0 15.357145,18.660719 0 1 1 30.71429,0 z"
       transform="matrix(0.20476011,0,0.03985164,0.29999159,358.08701,282.97707)"
       id="path3822"
       style="fill:url(#linearGradient3944);fill-opacity:1;stroke:none"
       inkscape:connector-curvature="0" />
    <path
       d="m 140,520.48718 a 15.357145,18.660719 0 1 1 -30.71429,0 15.357145,18.660719 0 1 1 30.71429,0 z"
       transform="matrix(0.12849191,0,0.02500787,0.18825196,375.31929,341.13611)"
       id="path3824"
       style="fill:#000000;stroke:none"
       inkscape:connector-curvature="0" />
    <path
       d="m 140,520.48718 a 15.357145,18.660719 0 1 1 -30.71429,0 15.357145,18.660719 0 1 1 30.71429,0 z"
       transform="matrix(0.15126702,0,0.00914725,0.18911127,353.50365,343.72458)"
       id="path3826"
       style="fill:#000000;stroke:none"
       inkscape:connector-curvature="0" />
    <path
       d="m 140,520.48718 a 15.357145,18.660719 0 1 1 -30.71429,0 15.357145,18.660719 0 1 1 30.71429,0 z"
       transform="matrix(0.10650625,0,0.02072888,0.17187752,378.85823,347.65304)"
       id="path3828"
       style="fill:#ffffff;stroke:none"
       inkscape:connector-curvature="0" />
    <path
       d="m 140,520.48718 a 15.357145,18.660719 0 1 1 -30.71429,0 15.357145,18.660719 0 1 1 30.71429,0 z"
       transform="matrix(0.15126702,0,0.00914725,0.18911127,352.43222,341.40315)"
       id="path3830"
       style="fill:#ffffff;stroke:none"
       inkscape:connector-curvature="0" />
    <path
       d="m 153.03571,540.57648 a 7.94643,4.1071438 0 1 1 -15.89286,0 7.94643,4.1071438 0 1 1 15.89286,0 z"
       transform="matrix(1,-0.1268499,0,1,247.47617,-62.249487)"
       id="path3832"
       style="fill:url(#linearGradient4047);fill-opacity:1;stroke:none"
       inkscape:connector-curvature="0" />
    <path
       d="m 416.85118,493.30577 c 0,0 -0.43137,0.0556 -0.84375,0.125 -2.62151,10.42728 -10.34375,17.78125 -10.34375,17.78125 -6.72904,2.1803 -12.96875,0.40625 -12.96875,0.40625 l 0,-10.84375 c -8.46075,5.30182 -14.20664,6.09966 -21.56251,10.03125 -2.12258,1.13448 -4.20199,4.21121 -5.875,6.96875 -1.7432,2.87323 -3.12841,10.00487 -1.46875,18.34375 1.8831,-2.60395 5.28196,-4.66418 8.34375,-5.34375 0.48725,-0.0493 0.98149,-0.0493 1.46875,0 3.22251,1.17777 2.50456,-0.14104 6.4375,0.9375 7.48059,0.75116 9.3761,8.92916 9.56251,15.46875 0.22521,-0.0971 0.46419,-0.18878 0.65625,-0.28125 4.82142,-2.32143 9.09822,-21.09821 16.0625,-28.0625 6.96429,-6.96428 10.53125,-16.95982 10.53125,-25.53125 z"
       id="path3862"
       style="fill:url(#radialGradient3910);fill-opacity:1;stroke:none"
       inkscape:connector-curvature="0" />
    <path
       d="m 403.88243,492.21202 c -3.44009,3.04581 -6.44911,5.42432 -9.1875,7.28125 l 0,10.25 c 0,0 4.82143,1.44196 10,-0.34375 0,0 6.50631,-6.55287 8.21875,-15.71875 -1.89554,-0.0116 -4.25464,-0.30812 -6.5625,-1.3125 l -3.78125,10.59375 1.3125,-10.75 z"
       id="path3864"
       style="fill:#ffffff;stroke:none"
       inkscape:connector-curvature="0" />
    <path
       d="m 372.66367,532.74327 c -3.9335,0.24523 -8.3125,5.75 -8.3125,5.75 0.33975,1.2884 0.75229,2.6175 1.25,3.9375 3.53168,9.36665 15.64043,7.6431 22.03126,5.5 -0.008,-1.94598 -0.21767,-5.09053 -1.3125,-8.375 -1.78572,-5.35715 -4.8393,-5.51786 -6.62501,-5.875 1.78571,2.67857 1.4375,6.78125 1.4375,6.78125 0,0 -3.58036,-7.15178 -7.6875,-7.6875 -0.2567,-0.0335 -0.51902,-0.0476 -0.78125,-0.0312 z"
       id="path3879"
       style="fill:#d35f5f;stroke:none"
       inkscape:connector-curvature="0" />
    <path
       d="m 319.85117,432.99327 c -0.0226,0.31984 -0.0312,0.64187 -0.0312,0.96875 0,5.92651 3.79382,10.77458 8.625,11.25 -1.14596,-1.6682 -2.21916,-4.01854 -2.6875,-7.34375 2.39912,0.25254 6.1875,2.90625 6.1875,2.90625 0,0 0.12294,-2.25206 -2.78125,-5.15625 2.14658,-0.12627 4.15625,0.625 4.15625,0.625 0,0 -0.16655,-2.4465 -13.46875,-3.25 z"
       id="path3981"
       style="fill:url(#linearGradient3991);fill-opacity:1;stroke:none"
       inkscape:connector-curvature="0" />
    <path
       d="m 394.53868,430.64952 c -2.85301,0.17071 -5.51869,1.20532 -7.84375,2.8125 1.8144,5.63194 1.79041,12.00695 -0.3125,17.09375 -0.22314,1.13793 -0.61931,2.07807 -1.15625,2.875 5.05234,-1.21788 10.52035,-1.77618 16.5,-1.59375 0.71313,-0.0147 1.41191,-0.0492 2.125,-0.0625 -3.39843,-3.18233 -4.87411,-8.81046 -6.09375,-13.15625 -0.50675,-2.27598 -0.84835,-5.10512 -0.71875,-7.875 -0.53226,-0.0582 -1.07988,-0.0937 -1.625,-0.0937 -0.29895,0 -0.57977,-0.0177 -0.875,0 z"
       id="path3993"
       style="fill:url(#linearGradient4005);fill-opacity:1;stroke:none"
       inkscape:connector-curvature="0" />
    <path
       d="m 391.03868,392.30577 c 0,0 -8.10645,4.92925 -6.84376,18.1875 0,0 -3.39356,0.22589 -4.65625,2.625 l 3.28125,4.3125 c 0,0 -7.05394,-5.6039 -14.125,-4.59375 -7.07107,1.01015 -18.0625,15.53125 -18.0625,15.53125 0,0 1.48636,-7.41164 9.0625,-13.09375 -10.69071,2.57576 -12.94001,4.58706 -17.96875,9.03125 3.5734,2.58841 8.93271,4.52696 15.5,5.625 2.18518,-5.35285 6.40061,-9.54475 12.6875,-10.21875 7.13416,-0.0913 12.36074,4.27575 15.31251,10.15625 4.26713,-0.60183 8.35927,-1.41453 12.21875,-2.4375 0.80211,-3.69912 2.80728,-6.81429 6.875,-7.65625 1.24079,-0.10024 2.49564,0.12852 3.625,0.65625 1.09197,0.63725 2.09667,1.37175 3.03125,2.1875 3.23877,-1.50411 6.09023,-3.13054 8.46875,-4.875 -1.35602,-0.58702 -3.06799,-1.14754 -4.9375,-1.3125 0.50508,1.13642 0,3.15625 0,3.15625 0,0 -5.81409,-9.22002 -11.875,-9.09375 -6.06092,0.12627 -9.84375,6.9375 -9.84375,6.9375 0,0 0.25714,-3.16466 2.65625,-5.4375 l -5.1875,-0.625 c 2.14657,-4.92449 6.84375,-8.84375 6.84375,-8.84375 0,0 -4.82218,0.50206 -6.96875,3.40625 -0.63135,-2.39911 -1.61913,-4.91243 0.90625,-13.625 z"
       id="path4007"
       style="fill:url(#linearGradient4019);fill-opacity:1;stroke:none"
       inkscape:connector-curvature="0" />
  </g>
</svg>
